<svg viewBox="-83 0 512 512" xmlns="http://www.w3.org/2000/svg">
    <path d="m0 0h345.375v60.050781h-345.375zm0 0"/>
    <path d="m0 451.949219h345.375v60.050781h-345.375zm0 0"/>
    <path d="m315.347656 109.578125v-19.527344h-285.324218v19.527344c0 53.238281 24.324218 98.074219 70.34375 129.664063 10 6.863281 19.980468 12.375 29.125 16.75-9.144532 4.378906-19.125 9.886718-29.125 16.753906-23.71875 16.28125-41.65625 36.089844-53.488282 58.742187 6.070313 1.238281 11.484375 2.777344 16.601563 4.238281 14.617187 4.171876 27.234375 7.773438 52.402343 3.933594 25.164063-3.835937 36.140626-11.039062 48.847657-19.375 13.664062-8.964844 29.152343-19.125 60.785156-23.949218 20.820313-3.179688 35.652344-2.0625 47.839844.351562-8.277344-8.644531-17.726563-16.648438-28.347657-23.9375-10.003906-6.867188-19.984374-12.378906-29.125-16.753906 9.140626-4.378906 19.121094-9.886719 29.125-16.753906 46.015626-31.589844 70.339844-76.425782 70.339844-129.664063zm0 0"/>
    <path d="m230.039062 325.992188c-25.167968 3.835937-36.140624 11.039062-48.851562 19.375-13.664062 8.964843-29.148438 19.125-60.78125 23.949218-9.082031 1.386719-17.03125 1.957032-24.113281 1.957032-17.578125 0-29.84375-3.5-41.042969-6.699219-6.589844-1.878907-12.660156-3.609375-19.605469-4.621094-3.726562 13.429687-5.621093 27.613281-5.621093 42.457031v19.539063h285.324218v-19.539063c0-24.65625-5.226562-47.5-15.398437-68.066406-6.460938-1.273438-12.179688-2.898438-17.507813-4.417969-14.613281-4.171875-27.238281-7.769531-52.402344-3.933593zm0 0"/>
</svg>